HIERARCHY
ROOT Hips
{
 OFFSET 0.000000 0.000000 0.000000
 CHANNELS 6 Xposition Yposition Zposition Yrotation Xrotation Zrotation
 JOINT Chest
 {
  OFFSET 0.000000 11.395451 -0.039534
  CHANNELS 3 Yrotation Xrotation Zrotation
  JOINT Chest2
  {
   OFFSET 0.000000 9.398669 0.071813
   CHANNELS 3 Yrotation Xrotation Zrotation
   JOINT Chest3
   {
    OFFSET 0.000000 8.489801 0.000000
    CHANNELS 3 Yrotation Xrotation Zrotation
    JOINT Chest4
    {
     OFFSET 0.000000 8.489801 0.000000
     CHANNELS 3 Yrotation Xrotation Zrotation
     JOINT Neck
     {
      OFFSET 0.000000 12.404889 0.000000
      CHANNELS 3 Yrotation Xrotation Zrotation
      JOINT Head
      {
       OFFSET 0.000000 8.903270 0.092239
       CHANNELS 3 Yrotation Xrotation Zrotation
       End Site
       {
        OFFSET 0.000000 17.592497 0.007158
       }
      }
     }
     JOINT RightCollar
     {
      OFFSET -3.196775 6.966722 0.000000
      CHANNELS 3 Yrotation Xrotation Zrotation
      JOINT RightShoulder
      {
       OFFSET -15.955896 0.000000 0.000000
       CHANNELS 3 Yrotation Xrotation Zrotation
       JOINT RightElbow
       {
        OFFSET -24.792472 0.000000 0.000000
        CHANNELS 3 Yrotation Xrotation Zrotation
        JOINT RightWrist
        {
         OFFSET -20.900115 0.000000 0.025002
         CHANNELS 3 Yrotation Xrotation Zrotation
         End Site
         {
          OFFSET -16.056692 0.000000 0.000000
         }
        }
       }
      }
     }
     JOINT LeftCollar
     {
      OFFSET 3.196775 6.966722 0.000000
      CHANNELS 3 Yrotation Xrotation Zrotation
      JOINT LeftShoulder
      {
       OFFSET 15.955896 0.000000 0.000000
       CHANNELS 3 Yrotation Xrotation Zrotation
       JOINT LeftElbow
       {
        OFFSET 24.792472 0.000000 0.000000
        CHANNELS 3 Yrotation Xrotation Zrotation
        JOINT LeftWrist
        {
         OFFSET 20.900115 0.000000 0.025002
         CHANNELS 3 Yrotation Xrotation Zrotation
         End Site
         {
          OFFSET 16.056692 0.000000 0.000000
         }
        }
       }
      }
     }
    }
   }
  }
 }
 JOINT RightHip
 {
  OFFSET -9.568995 0.193718 0.019767
  CHANNELS 3 Yrotation Xrotation Zrotation
  JOINT RightKnee
  {
   OFFSET 0.000000 -56.649296 0.015402
   CHANNELS 3 Yrotation Xrotation Zrotation
   JOINT RightAnkle
   {
    OFFSET 0.000000 -41.365147 0.021264
    CHANNELS 3 Yrotation Xrotation Zrotation
    JOINT RightToe
    {
     OFFSET 0.000000 -7.465940 17.672538
     CHANNELS 3 Yrotation Xrotation Zrotation
     End Site
     {
      OFFSET 0.000000 -1.736315 7.837145
     }
    }
   }
  }
 }
 JOINT LeftHip
 {
  OFFSET 9.568995 0.193718 0.019767
  CHANNELS 3 Yrotation Xrotation Zrotation
  JOINT LeftKnee
  {
   OFFSET 0.000000 -56.649296 0.015402
   CHANNELS 3 Yrotation Xrotation Zrotation
   JOINT LeftAnkle
   {
    OFFSET 0.000000 -41.365147 0.021264
    CHANNELS 3 Yrotation Xrotation Zrotation
    JOINT LeftToe
    {
     OFFSET 0.000000 -7.465940 17.672538
     CHANNELS 3 Yrotation Xrotation Zrotation
     End Site
     {
      OFFSET 0.000000 -1.736315 7.837145
     }
    }
   }
  }
 }
}
MOTION
Frames: 5
Frame Time: 0.016667
93.443074 101.625857 286.457554 74.316689 -3.538519 2.060802 2.930272 2.877779 -0.742892 1.306528 1.274306 -0.348239 1.306528 1.274306 -0.348239 0.980582 0.954991 -0.263895 -8.788036 14.787194 2.057828 -17.234140 -7.914999 7.143829 -1.175309 6.232060 8.725289 30.274422 -24.813568 53.710237 34.062473 -4.018749 3.254398 -1.521898 1.235872 -0.212565 -3.224062 -1.598861 -11.357211 6.784609 3.095100 -64.564144 -7.800808 -3.659192 -7.428491 2.234239 1.041258 3.386247 -0.423932 -5.167949 1.059675 -7.637445 52.182107 -2.806037 11.451342 -12.901513 4.431907 4.265733 -29.540491 -16.080259 20.558212 -18.726869 -5.069434 6.134493 15.393861 -2.466922 16.663694 2.547026 1.803283 0.000000 0.000000 0.000000
91.549532 101.365932 286.064895 74.464392 -3.553323 1.680416 2.735310 2.979565 -0.139701 1.216154 1.323418 -0.079642 1.216167 1.323452 -0.079644 0.912274 0.992470 -0.062364 -8.941566 14.430631 2.001931 -17.549344 -8.558630 7.153523 -1.368367 5.891732 8.786910 31.050514 -25.609982 52.746981 33.593867 -4.215957 2.514513 -1.105711 0.969994 -0.366072 -3.236088 -1.974966 -11.603919 7.586381 3.044007 -64.933621 -8.721674 -3.090013 -7.466947 2.207813 0.787220 2.839291 -0.806300 -3.805844 1.855151 -7.633083 48.400579 -2.429661 11.052659 -16.637449 0.927428 3.012370 -25.815465 -12.106470 20.105732 -19.957775 -4.667820 6.804360 15.560341 -2.471345 15.736420 3.953242 0.906000 -0.000000 -0.000000 0.000000
89.493886 101.105857 285.701392 74.891953 -3.497387 1.128341 2.455938 3.246369 0.545915 1.087222 1.445716 0.225330 1.087222 1.445752 0.225332 0.814849 1.084755 0.166422 -9.080313 13.800797 2.004787 -17.899241 -9.697060 7.314774 -1.586016 5.486481 8.895315 32.084535 -26.367644 51.694794 33.156206 -4.553702 1.566302 -0.551587 0.632683 -0.504926 -3.311738 -2.402688 -11.891291 8.268462 2.831840 -65.248814 -9.935071 -3.166268 -7.757209 2.072934 0.361710 2.265208 -1.782744 -2.892773 2.799543 -7.672024 44.984528 -2.399413 10.776529 -21.884634 -2.762605 1.204771 -17.195053 -7.424785 19.555758 -21.460150 -4.150583 7.304110 15.926212 -2.424670 14.458852 5.484539 -0.205596 0.000000 0.000000 0.000000
87.457771 100.946765 285.375695 75.106913 -3.479729 0.579946 2.272267 3.569749 1.189002 1.000239 1.592356 0.510690 1.000239 1.592356 0.510690 0.748801 1.195108 0.380388 -9.187065 13.229757 2.048317 -18.201022 -10.724207 7.534852 -1.683288 5.290176 9.041811 33.140539 -27.021779 50.646723 32.449129 -5.122186 0.614086 0.196934 0.137951 -0.807727 -3.503793 -2.652067 -12.081998 8.664777 2.517472 -65.572648 -10.962781 -4.167567 -8.521554 1.912448 0.023342 1.980223 -2.416778 -2.307664 3.808709 -6.985239 42.033032 -2.048522 10.189369 -25.799622 -5.776853 0.341026 -9.864293 -3.950286 19.055546 -22.768875 -3.454881 7.023460 16.329699 -2.311196 12.400682 6.693946 -1.608620 0.000000 0.000000 -0.000000
85.472105 100.925375 285.109297 74.820509 -3.586984 0.044347 2.319623 3.989529 1.769761 1.015152 1.781877 0.766126 1.015199 1.781825 0.766114 0.759135 1.337609 0.571563 -9.262917 12.785353 2.145964 -18.450681 -11.512779 7.826386 -1.563072 5.510604 9.224744 34.289505 -27.602833 49.477884 31.451915 -6.242610 -0.355315 1.419498 -0.710313 -1.428766 -3.888428 -2.592448 -12.096294 8.646073 2.022924 -65.962585 -11.588306 -6.847662 -10.153307 1.617800 -0.156012 2.369743 -2.311995 -2.097674 4.961555 -4.852493 39.695650 -1.008874 8.317696 -27.100173 -7.657746 0.097051 -6.348703 -1.810301 18.760809 -23.705361 -2.408009 5.612239 16.542112 -2.151987 8.401088 7.463853 -3.617396 -0.000000 0.000000 -0.000000
